<svg width="221" height="202" viewBox="0 0 221 202" fill="none" xmlns="http://www.w3.org/2000/svg">
<g clip-path="url(#clip0_10_5)">
<path d="M196.307 190.184C196.386 193.933 195.868 197.671 194.774 201.257C194.735 201.388 194.69 201.518 194.644 201.648H172.082C172.405 200.06 172.917 198.516 173.608 197.05C175.485 193.065 178.55 189.655 181.577 186.268C185.746 181.601 189.816 176.972 190.459 170.903C192.112 173.422 193.431 176.145 194.383 179.003C193.217 179.435 192.147 180.091 191.233 180.934C190.98 181.172 190.712 181.516 190.843 181.846C190.965 182.122 191.302 182.214 191.601 182.275C192.322 182.413 193.042 182.551 193.762 182.681C194.329 182.796 194.904 182.904 195.479 183.011C195.984 185.37 196.261 187.772 196.307 190.184V190.184Z" fill="#F2F2F2"/>
<path d="M215.258 187.701C211.641 189.9 209.342 193.303 207.464 197.111C205.831 197.484 204.322 198.276 203.089 199.41C202.828 199.648 202.56 199.993 202.698 200.322C202.813 200.598 203.158 200.69 203.456 200.752C204.169 200.89 204.897 201.027 205.61 201.158C205.541 201.319 205.472 201.487 205.403 201.648H181.493C182.579 200.184 183.781 198.811 185.087 197.541C185.371 197.257 185.662 196.989 185.961 196.713C189.009 193.958 192.509 191.75 196.307 190.184C202.29 187.682 208.832 186.825 215.258 187.701V187.701Z" fill="#F2F2F2"/>
<path d="M185.478 201.648H164.189C164.073 199.943 164.083 198.232 164.22 196.529C164.681 191.257 166.28 186.147 168.906 181.553C171.532 176.958 175.123 172.987 179.432 169.914C178.328 173.845 178.895 177.754 180.045 181.677C179.884 181.731 179.723 181.777 179.577 181.838C178.411 182.27 177.341 182.926 176.428 183.77C176.175 184.007 175.907 184.352 176.037 184.681C176.152 184.957 176.497 185.049 176.795 185.111C177.516 185.249 178.236 185.386 178.949 185.517C179.524 185.632 180.098 185.739 180.673 185.854C180.941 185.9 181.21 185.954 181.478 186.007C181.516 186.099 181.539 186.183 181.577 186.268C182.926 189.984 184.398 193.732 185.087 197.541C185.258 198.496 185.376 199.461 185.44 200.43C185.463 200.836 185.478 201.242 185.478 201.648Z" fill="#F2F2F2"/>
<path d="M22.5727 14.4104C26.552 14.4104 29.7779 11.1845 29.7779 7.20519C29.7779 3.22587 26.552 0 22.5727 0C18.5934 0 15.3675 3.22587 15.3675 7.20519C15.3675 11.1845 18.5934 14.4104 22.5727 14.4104Z" fill="#FCD34D"/>
<path d="M38.6996 3.79381C38.4958 3.12735 38.1018 2.53498 37.5658 2.08955C37.0298 1.64412 36.3754 1.36506 35.6829 1.2867C35.6672 1.28449 35.6524 1.28741 35.6368 1.2864C35.6166 1.28025 35.5961 1.27551 35.5753 1.27224C32.2802 0.846381 28.4767 2.42231 27.1034 5.54615C26.7683 5.08927 26.3271 4.72082 25.8178 4.47263C25.3084 4.22443 24.7463 4.10395 24.18 4.1216C23.4498 4.17026 22.7524 4.44277 22.1826 4.90204C21.6128 5.3613 21.1984 5.985 20.9957 6.68823C20.9742 6.77431 20.9806 6.86501 21.014 6.9472C21.0475 7.02939 21.1062 7.0988 21.1818 7.14535C21.3994 7.32979 21.6572 7.46066 21.9346 7.52748C22.533 7.65425 23.1335 7.77038 23.7361 7.87587C24.9121 8.08167 26.0942 8.24805 27.2825 8.37502C29.6946 8.63351 32.1216 8.72524 34.5463 8.64958C35.3539 8.62441 36.1326 8.59762 36.8726 8.24121C37.4109 7.97533 37.8707 7.57401 38.2071 7.07666C38.5239 6.59863 38.7322 6.057 38.8173 5.48984C38.9024 4.92269 38.8622 4.34377 38.6996 3.79381Z" fill="#F0F0F0"/>
<path d="M23.7241 13.4007C23.5204 12.7343 23.1263 12.1419 22.5903 11.6965C22.0544 11.2511 21.3999 10.972 20.7074 10.8936C20.6918 10.8914 20.6769 10.8943 20.6613 10.8933C20.6412 10.8872 20.6206 10.8824 20.5998 10.8792C17.3048 10.4533 13.5012 12.0292 12.1279 15.1531C11.7929 14.6962 11.3516 14.3277 10.8423 14.0795C10.333 13.8313 9.77088 13.7109 9.20457 13.7285C8.47436 13.7772 7.77687 14.0497 7.20708 14.509C6.63729 14.9682 6.22288 15.5919 6.02026 16.2952C5.99871 16.3812 6.00513 16.4719 6.03858 16.5541C6.07203 16.6363 6.13077 16.7057 6.20631 16.7523C6.42393 16.9367 6.68175 17.0676 6.95907 17.1344C7.55747 17.2612 8.158 17.3773 8.76066 17.4828C9.93665 17.6886 11.1188 17.855 12.307 17.9819C14.7191 18.2404 17.1461 18.3322 19.5708 18.2565C20.3784 18.2313 21.1572 18.2045 21.8971 17.8481C22.4354 17.5822 22.8953 17.1809 23.2316 16.6836C23.5484 16.2055 23.7567 15.6639 23.8418 15.0967C23.9269 14.5296 23.8867 13.9507 23.7241 13.4007V13.4007Z" fill="#F0F0F0"/>
<path d="M93.0384 125.233C92.8561 125.501 92.3765 125.819 92.1896 126.082L92.389 125.478L92.3211 125.338L91.8967 124.489L81.0912 102.712L81.087 102.708L62.7694 65.8098V65.8055L62.3492 64.961V64.9567L53.2838 46.6944L52.8553 45.8286C53.1777 45.8371 53.5002 45.8498 53.8228 45.8668L54.2557 46.7368L63.2958 64.9567L63.2999 64.961L63.7202 65.8055V65.8098L81.5707 101.77V101.774L81.9909 102.619V102.623L92.7964 124.383L92.9407 124.675L93.0384 125.233Z" fill="#3F3D56"/>
<path d="M91.833 65.8097H10.966C11.1825 65.5254 11.403 65.2411 11.6322 64.9609H91.1668C91.396 65.241 91.6165 65.5254 91.833 65.8097Z" fill="#3F3D56"/>
<path d="M102.078 101.774C102.053 102.059 102.023 102.343 101.985 102.623H81.2694V101.774H102.078Z" fill="#3F3D56"/>
<path d="M14.0429 62.1641V130.46C13.7501 130.15 13.4699 129.836 13.1941 129.522V63.102C13.4699 62.788 13.7501 62.4739 14.0429 62.1641Z" fill="#3F3D56"/>
<path d="M92.5852 124.488H13.6187V125.337H92.5852V124.488Z" fill="#3F3D56"/>
<path d="M92.5164 125.233H92.614V125.093C92.5844 125.142 92.5518 125.189 92.5164 125.233V125.233ZM91.8628 65.7057C91.6462 65.4213 91.4257 65.137 91.1965 64.8568C86.6885 59.2008 81.0254 54.5717 74.5855 51.279C68.1457 47.9863 61.0773 46.1056 53.8526 45.7626C53.5302 45.7456 53.2077 45.7329 52.8851 45.7244C52.4012 45.7117 51.9173 45.7032 51.4293 45.7032C44.4102 45.6995 37.4665 47.1511 31.0367 49.9664C24.6069 52.7817 18.8307 56.8996 14.0727 62.06C13.7799 62.3698 13.4997 62.6839 13.2239 62.9979C12.6849 63.6048 12.1643 64.2245 11.662 64.8568C11.4328 65.137 11.2123 65.4213 10.9958 65.7057C3.82342 75.056 0.123883 86.6085 0.530346 98.3859C0.93681 110.163 5.42401 121.433 13.2239 130.267C13.4997 130.581 13.7799 130.895 14.0727 131.205C19.2017 136.759 25.5045 141.101 32.5225 143.913C39.5404 146.725 47.097 147.937 54.6424 147.461C62.1878 146.985 69.5321 144.832 76.141 141.161C82.7499 137.489 88.4571 132.39 92.8474 126.235C93.0343 125.972 93.221 125.709 93.4034 125.441C98.11 118.622 101.067 110.75 102.015 102.519C102.053 102.239 102.083 101.955 102.108 101.67C102.273 100.015 102.357 98.3357 102.358 96.6324C102.371 85.4473 98.6808 74.5726 91.8628 65.7057V65.7057ZM101.162 102.519C100.238 110.42 97.4285 117.983 92.9704 124.571C92.8558 124.745 92.737 124.919 92.614 125.093C92.5844 125.142 92.5518 125.189 92.5164 125.233C92.4868 125.28 92.4528 125.327 92.4188 125.373C88.0894 131.559 82.4158 136.685 75.8234 140.366C69.2311 144.047 61.8909 146.188 54.3533 146.628C46.8158 147.068 39.2763 145.796 32.3003 142.907C25.3243 140.019 19.0927 135.588 14.0727 129.949C13.7799 129.626 13.4956 129.303 13.2239 128.972C5.76094 120.18 1.56846 109.077 1.35729 97.5457C1.14612 86.0148 4.92925 74.7657 12.0653 65.7056C12.2903 65.4213 12.5152 65.1369 12.7485 64.8568C12.9014 64.6658 13.0583 64.4791 13.2239 64.2924C13.4956 63.9613 13.7799 63.6388 14.0727 63.3162C18.7612 58.0408 24.5147 53.819 30.9538 50.9294C37.393 48.0398 44.3715 46.5479 51.4293 46.552C52.0617 46.552 52.6898 46.5648 53.3136 46.5902C53.6404 46.5987 53.9631 46.6157 54.2855 46.6327C61.1926 47.0275 67.9426 48.851 74.1089 51.9878C80.2752 55.1247 85.7237 59.5067 90.11 64.8568C90.3433 65.1369 90.5684 65.4213 90.7932 65.7056C98.8017 75.8892 102.553 88.7796 101.259 101.67C101.229 101.954 101.2 102.239 101.162 102.519L101.162 102.519ZM92.5164 125.233H92.614V125.093C92.5844 125.142 92.5518 125.189 92.5164 125.233H92.5164Z" fill="#CCCCCC"/>
<path d="M45.0106 29.5536C45.0106 29.787 45.003 30.0184 44.9879 30.2479C44.9031 31.5714 44.5688 32.867 44.0025 34.0663C43.9981 34.0765 43.9929 34.086 43.9886 34.0956C43.9622 34.1512 43.9351 34.2068 43.9073 34.2617C43.7389 34.6008 43.5521 34.9306 43.3476 35.2494C42.4139 36.7128 41.134 37.9237 39.6211 38.7751C38.1083 39.6264 36.409 40.092 34.6734 40.1308L34.7781 46.1477L36.1426 45.4292L36.3862 45.8923L34.7883 46.7337L34.9837 57.9086L34.9859 58.0579L33.9309 58.2927L33.933 58.1428L34.2652 40.1315C32.8683 40.1115 31.4892 39.8141 30.2081 39.2567C28.9271 38.6993 27.7695 37.893 26.8026 36.8845C26.736 36.8158 26.6702 36.7448 26.6058 36.6745L26.5984 36.6665C25.7928 35.788 25.1413 34.7798 24.6713 33.6844C24.6816 33.6961 24.6925 33.707 24.7028 33.7187C20.3432 22.7629 22.8796 17.684 29.7203 20.0826C29.7569 20.0643 29.7942 20.0468 29.8308 20.0285C32.2234 18.876 34.9618 18.6645 37.503 19.436C40.0442 20.2075 42.2028 21.9055 43.551 24.1936C43.6154 24.3019 43.6776 24.4124 43.7376 24.5236C44.5751 26.0678 45.0127 27.797 45.0106 29.5536V29.5536Z" fill="#E5E5E5"/>
<path d="M57.4517 20.2344C57.3241 22.3364 56.7802 24.3921 55.8516 26.2822C54.0649 29.8982 50.9285 32.6399 47.0197 33.6627C47.0132 33.6661 47.0058 33.6676 46.9985 33.667C46.0149 33.9235 45.0054 34.0673 43.9894 34.0956H43.9045C43.7984 34.0999 43.6923 34.0998 43.5862 34.0998C43.514 34.0998 43.4419 34.0999 43.3697 34.0956C39.7305 34.0395 36.2594 32.5544 33.7057 29.961C31.152 27.3677 29.7207 23.874 29.7207 20.2344V20.0816C29.7271 19.1967 29.8556 18.3169 30.1027 17.4672C30.1027 17.463 30.1069 17.4588 30.1069 17.4545C30.5679 15.9779 31.3993 14.6439 32.5218 13.5796C35.3017 10.8295 39.7029 9.10212 43.5862 6.36892C52.0914 0.384736 58.3387 6.33922 57.4517 20.2344Z" fill="#E5E5E5"/>
<path opacity="0.2" d="M55.8516 26.2822C54.0649 29.8982 50.9285 32.6399 47.0197 33.6627C47.0132 33.6662 47.0058 33.6676 46.9985 33.667C46.0175 33.9105 45.0126 34.0443 44.0021 34.0659H43.9045C43.7263 34.0702 43.548 34.0702 43.3697 34.0659C39.7208 33.9749 36.2544 32.4507 33.7206 29.8233C31.1869 27.1958 29.7896 23.6763 29.8311 20.0264C29.844 19.1669 29.9349 18.3103 30.1027 17.4672C30.1027 17.463 30.1069 17.4588 30.1069 17.4545C30.5679 15.9779 31.3993 14.6439 32.5218 13.5797C32.1448 15.3781 32.129 17.2335 32.4754 19.0381C32.8218 20.8426 33.5234 22.5604 34.5395 24.0914C35.5556 25.6224 36.8658 26.9362 38.3941 27.9564C39.9224 28.9766 41.6383 29.6828 43.4419 30.034C43.5735 30.0595 43.705 30.085 43.8366 30.1062C44.2186 30.1699 44.6005 30.2165 44.9868 30.2462C46.9765 30.4077 48.9775 30.1371 50.8529 29.4529C52.7282 28.7687 54.4334 27.6871 55.8516 26.2822V26.2822Z" fill="black"/>
<path d="M44.0561 42.7513L46.1495 41.6494L45.8301 41.0426L44.0421 41.9838L43.9076 34.2619V34.261L43.9044 34.0974V34.0683L43.835 30.1069L43.7377 24.5238L43.6631 20.2341H43.6241L43.5511 24.1936V24.1945L43.4436 30.0355L43.3693 34.0658L43.369 34.0994L43.3476 35.2493L42.9232 58.316L42.9203 58.4683L44.3365 58.8658L44.3339 58.7122L44.0561 42.7513Z" fill="#3F3D56"/>
<path d="M94.5666 70.067C85.765 68.3034 76.9353 66.7036 67.9983 65.7245C59.5244 64.7278 50.9791 64.4807 42.4618 64.9861C34.7696 65.505 27.0116 66.7216 19.7854 69.4953C14.217 71.6326 8.28134 74.8663 5.27351 80.2591C2.37409 85.4576 3.50496 91.4525 6.66206 96.2488C10.4607 102.02 16.3842 105.974 22.5426 108.865C29.5545 112.156 37.0544 114.289 44.5639 116.103C48.3725 117.023 52.2018 117.855 56.0313 118.682C56.8302 118.855 57.1716 117.628 56.3698 117.455C48.6472 115.786 40.9022 114.112 33.3713 111.696C26.4023 109.461 19.2705 106.597 13.5635 101.903C8.94651 98.1056 4.55672 92.5589 4.82924 86.2526C5.10396 79.8951 10.438 75.4563 15.666 72.7241C22.1996 69.3097 29.6227 67.6464 36.8965 66.7772C45.2251 65.8491 53.6243 65.7349 61.9751 66.4361C73.1357 67.2853 84.1312 69.2552 95.0847 71.4617" fill="black"/>
<path d="M53.2456 80.1918C56.9495 82.0431 59.2045 84.4881 59.2045 87.1699C59.2045 92.9469 48.7508 97.6302 35.8556 97.6302C30.2491 97.6302 25.1056 96.7442 21.0807 95.2687C25.3557 97.4055 31.5614 98.7509 38.4707 98.7509C51.3658 98.7509 61.8196 94.0677 61.8196 88.2906C61.8196 85.0252 58.4783 82.1101 53.2456 80.1918Z" fill="#F1F1F1"/>
<path d="M61.4844 84.1601C65.6638 86.249 68.2083 89.0079 68.2083 92.034C68.2083 98.5527 56.4125 103.837 41.8619 103.837C35.5356 103.837 29.7318 102.837 25.1901 101.173C30.014 103.584 37.0164 105.102 44.8126 105.102C59.3633 105.102 71.1591 99.8174 71.1591 93.2986C71.1591 89.614 67.3889 86.3246 61.4844 84.1601Z" fill="#F1F1F1"/>
<path d="M50.0926 81.9397C52.7021 83.244 54.2908 84.9666 54.2908 86.856C54.2908 90.926 46.9259 94.2255 37.8409 94.2255C34.3015 94.2713 30.7805 93.7085 27.4316 92.5618C30.4435 94.0672 34.8156 95.0151 39.6833 95.0151C48.7683 95.0151 56.1332 91.7157 56.1332 87.6456C56.1332 85.345 53.7792 83.2912 50.0926 81.9397Z" fill="#F1F1F1"/>
<path d="M36.1971 89.7341C30.8311 89.7341 28.2216 88.2621 26.9774 87.0272C26.7504 86.8006 26.5957 86.5116 26.533 86.197C26.4704 85.8824 26.5024 85.5562 26.6253 85.2599C26.7481 84.9635 26.9561 84.7102 27.2229 84.5322C27.4898 84.3541 27.8035 84.2592 28.1243 84.2596H46.8441C47.099 84.2594 47.3475 84.3386 47.5552 84.4863C47.7629 84.6341 47.9194 84.8428 48.0029 85.0836C48.0863 85.3244 48.0927 85.5853 48.021 85.8298C47.9493 86.0744 47.8031 86.2905 47.6028 86.4481C45.6959 87.9472 42.1692 89.7341 36.1971 89.7341Z" fill="#3F3D56"/>
<path d="M40.0841 70.8953C38.6248 69.7866 36.793 69.2855 34.9725 69.4971C38.2045 70.295 35.6541 74.7616 38.5974 79.3938C40.2014 81.9183 37.0819 83.1559 34.1103 83.4947C35.7007 83.8786 37.3749 83.7032 38.8513 82.9981C40.3276 82.2929 41.5162 81.1009 42.2172 79.6225C42.9181 78.1442 43.0887 76.4695 42.7003 74.8802C42.3118 73.2908 41.388 71.8836 40.0841 70.8953V70.8953Z" fill="#3F3D56"/>
<path d="M36.7715 68.5668H36.0823V84.9732H36.7715V68.5668Z" fill="#3F3D56"/>
<path d="M103.102 73.1715C101.271 71.8823 99.2045 70.9662 97.0198 70.4757C94.8352 69.9852 92.5753 69.9298 90.3692 70.3127C88.1631 70.6955 86.0541 71.5091 84.1625 72.7071C82.2708 73.905 80.6337 75.4638 79.3445 77.2945C73.9226 84.9934 68.4822 105.182 72.3226 116.877C83.7775 104.778 101.376 103.52 107.225 96.9288C113.475 89.8854 110.801 78.5933 103.102 73.1715Z" fill="#3B82F6"/>
<path d="M93.0527 90.6053C96.1237 90.6053 98.6133 88.1157 98.6133 85.0447C98.6133 81.9736 96.1237 79.4841 93.0527 79.4841C89.9817 79.4841 87.4921 81.9736 87.4921 85.0447C87.4921 88.1157 89.9817 90.6053 93.0527 90.6053Z" fill="white"/>
<path d="M67.6219 122.933C69.6334 122.933 71.264 121.303 71.264 119.291C71.264 117.28 69.6334 115.649 67.6219 115.649C65.6104 115.649 63.9798 117.28 63.9798 119.291C63.9798 121.303 65.6104 122.933 67.6219 122.933Z" fill="#3B82F6"/>
<path opacity="0.2" d="M99.0019 83.7616C99.3701 84.3922 99.6104 85.0891 99.7093 85.8126C99.8081 86.5361 99.7635 87.272 99.578 87.9782C99.3924 88.6845 99.0696 89.3473 98.6279 89.9287C98.1862 90.5102 97.6343 90.999 97.0037 91.3672C96.3731 91.7354 95.6762 91.9758 94.9527 92.0746C94.2292 92.1735 93.4933 92.1288 92.7871 91.9433C92.0808 91.7578 91.418 91.4349 90.8366 90.9932C90.2551 90.5515 89.7663 89.9996 89.3981 89.369C90.3906 90.2398 91.6606 90.7289 92.9808 90.7488C94.301 90.7687 95.5852 90.3181 96.6035 89.4777C97.6218 88.6372 98.3079 87.4618 98.5387 86.1619C98.7696 84.8619 98.5303 83.5221 97.8637 82.3824C98.315 82.7777 98.6994 83.2435 99.0019 83.7616V83.7616Z" fill="#231F20"/>
<path opacity="0.2" d="M107.235 96.955C101.386 103.547 83.788 104.804 72.333 116.904C71.9755 115.797 71.7003 114.666 71.5096 113.518C82.9589 102.519 99.5775 101.129 105.229 94.7599C110.287 89.0598 109.499 80.5775 104.935 74.6754C111.195 80.4787 112.963 90.5004 107.235 96.955Z" fill="#231F20"/>
<path d="M167.201 197.538H163.05L161.076 181.528H167.202L167.201 197.538Z" fill="#FFB6B6"/>
<path d="M168.259 201.562L154.876 201.561V201.392C154.876 200.01 155.425 198.685 156.402 197.708C157.379 196.732 158.704 196.183 160.085 196.183H160.085L162.53 194.328L167.091 196.183L168.26 196.183L168.259 201.562Z" fill="#2F2E41"/>
<path d="M151.116 194.922L147.067 195.837L141.614 180.655L147.59 179.306L151.116 194.922Z" fill="#FFB6B6"/>
<path d="M153.035 198.614L139.98 201.562L139.943 201.397C139.638 200.049 139.882 198.636 140.62 197.468C141.357 196.299 142.529 195.472 143.876 195.168L143.877 195.168L145.853 192.82L150.711 193.625L151.85 193.367L153.035 198.614Z" fill="#2F2E41"/>
<path d="M172.458 99.662C174.404 105.531 174.198 111.902 171.99 118.74L171.046 157.238C172.607 158.956 173.586 165.958 171.182 170.972C167.972 177.668 170.184 186.927 167.915 191.369H161.333L159.716 173.284L158.291 171.245L158.075 154.933C157.201 152.863 156.188 150.811 157.966 148.413L157.918 145.58L157.665 130.477L147.74 144.991C147.458 148.276 145.779 149.997 143.556 151.109L146.63 164.676C152.006 169.278 150.691 176.4 150.78 182.993L152.543 190.773L144.442 191.497L140.868 180.947L136.849 174.445L129.859 148.453L134.734 137.139L136.726 132.515L147.852 106.692L172.458 99.662Z" fill="#2F2E41"/>
<path d="M103.694 78.7297C104.019 79.0536 104.41 79.3025 104.841 79.4588C105.272 79.615 105.733 79.6748 106.189 79.634C106.646 79.5932 107.088 79.4528 107.485 79.2226C107.881 78.9924 108.223 78.6781 108.484 78.3017L119.214 81.3179L117.453 75.8002L107.534 73.7819C106.872 73.3838 106.088 73.2421 105.329 73.3837C104.57 73.5253 103.89 73.9404 103.416 74.5503C102.943 75.1602 102.71 75.9225 102.761 76.6928C102.812 77.4631 103.144 78.1878 103.694 78.7297V78.7297Z" fill="#FFB8B8"/>
<path d="M112.47 74.2732L122.943 74.1964C125.768 73.4069 128.745 73.3394 131.602 74.0003L132.158 74.1288L136.529 73.6331C139.135 68.4245 143.97 63.7153 150.46 59.3772C151.439 58.5883 152.574 58.0157 153.79 57.697C155.006 57.3783 156.276 57.3208 157.516 57.5282C158.756 57.7356 159.938 58.2033 160.984 58.9004C162.03 59.5976 162.917 60.5083 163.585 61.5728V61.5728C164.793 63.4999 165.218 65.8156 164.773 68.0459C164.329 70.2761 163.049 72.2522 161.195 73.5694L141.417 85.1979C139.682 86.2181 137.711 86.7691 135.698 86.7964V86.7964L135.65 86.8214L124.367 82.5942L118.564 81.8557L110.694 79.5685L112.47 74.2732Z" fill="#3B82F6"/>
<path d="M154.489 49.8332C159.946 49.8332 164.37 45.4092 164.37 39.9519C164.37 34.4946 159.946 30.0705 154.489 30.0705C149.031 30.0705 144.607 34.4946 144.607 39.9519C144.607 45.4092 149.031 49.8332 154.489 49.8332Z" fill="#FFB8B8"/>
<path d="M163.717 46.2188C164.449 45.1738 164.969 43.5001 165.276 42.2768C165.686 40.6661 165.754 38.987 165.474 37.3485C165.194 35.7101 164.573 34.1487 163.651 32.7655C163.311 32.2018 162.823 31.7416 162.241 31.4346C161.643 31.1676 160.854 31.2312 160.438 31.7362C160.436 31.2931 160.344 30.855 160.167 30.4488C159.99 30.0427 159.731 29.6772 159.407 29.3748C158.754 28.7735 157.97 28.3327 157.117 28.0872C155.473 27.586 153.725 27.5391 152.057 27.9516C150.389 28.364 148.863 29.2203 147.643 30.4297C147.166 30.9149 147.336 28.4904 146.806 28.9175C146.293 29.3763 145.621 29.616 144.934 29.5855C144.257 29.5135 143.013 31.9241 143.006 31.2438C142.294 31.957 141.981 34.9644 142.203 35.947C142.426 36.9295 145.738 36.4953 146.687 36.832C147.316 37.0551 148 37.0626 148.651 37.2078C149.809 37.5071 150.818 38.22 151.486 39.212C152.155 40.204 152.437 41.4064 152.279 42.5922C152.696 42.0319 153.2 41.5425 153.773 41.143C154.062 40.9458 154.393 40.8203 154.74 40.777C155.087 40.7337 155.439 40.7738 155.767 40.8941C156.063 41.053 156.324 41.2708 156.533 41.5341C156.742 41.7975 156.895 42.1007 156.982 42.4253C157.198 43.0606 157.282 43.7351 157.501 44.369C158.146 46.2292 158.478 48.1819 160.275 48.6229C161.693 48.971 162.717 47.6457 163.717 46.2188Z" fill="#2F2E41"/>
<path d="M173.301 97.7032L172.216 95.5333C170.888 87.3051 169.576 79.6306 171.359 72.7274C171.471 66.7011 169.608 61.0397 164.436 57.9481L162.103 56.5527L160.922 53.5572L150.047 53.8228L150.015 57.7497L146.12 63.9616V63.9872L146.364 97.7896L147.439 101.278L145.816 105.336L146.677 107.925L168.117 104.498L170.61 104.098C170.897 104.005 171.175 103.884 171.439 103.736C172.333 103.239 173.034 102.456 173.429 101.512C173.452 101.457 173.471 101.406 173.49 101.352C173.658 100.911 173.755 100.446 173.778 99.9754C173.817 99.1896 173.653 98.407 173.301 97.7032V97.7032Z" fill="#3B82F6"/>
<path opacity="0.2" d="M173.778 99.9754C173.755 100.447 173.658 100.911 173.49 101.352L171.439 103.736C171.175 103.884 170.897 104.005 170.61 104.098L168.117 104.498L171.723 97.716L163.796 80.3603L173.778 99.9754Z" fill="black"/>
<path d="M182.406 120.05C182.008 119.778 181.675 119.423 181.429 119.008C181.183 118.594 181.031 118.131 180.983 117.652C180.936 117.172 180.994 116.688 181.154 116.234C181.314 115.779 181.571 115.365 181.908 115.021L176.691 104.538L182.731 105.273L186.76 115.116C187.301 115.72 187.601 116.502 187.604 117.313C187.606 118.125 187.311 118.908 186.775 119.517C186.238 120.125 185.497 120.515 184.692 120.613C183.887 120.711 183.073 120.511 182.406 120.05V120.05Z" fill="#FFB8B8"/>
<path d="M161.254 83.9784L165.212 83.4317C165.212 83.4317 165.594 89.3994 167.488 90.3039C169.381 91.2083 168.743 91.3571 168.966 92.3145C169.189 93.2719 170.2 94.7188 171.699 95.3785C173.199 96.0382 180.021 112.627 180.021 112.627L185.766 111.288C185.234 109.847 184.884 108.346 184.724 106.82C184.522 104.511 181.906 99.0646 181.044 98.256C180.183 97.4474 180.523 96.0221 180.077 94.1072C179.63 92.1924 179.94 93.9679 179.196 90.7766C178.452 87.5852 170.085 68.4594 169.734 65.5127C169.384 62.5661 165.278 60.8316 165.278 60.8316L162.086 61.5759L161.254 83.9784Z" fill="#3B82F6"/>
<path d="M95.5164 202H220.101C220.207 202 220.308 201.958 220.383 201.883C220.458 201.808 220.5 201.707 220.5 201.601C220.5 201.495 220.458 201.394 220.383 201.319C220.308 201.244 220.207 201.202 220.101 201.202H95.5164C95.4106 201.202 95.309 201.244 95.2342 201.319C95.1594 201.394 95.1173 201.495 95.1173 201.601C95.1173 201.707 95.1594 201.808 95.2342 201.883C95.309 201.958 95.4106 202 95.5164 202V202V202Z" fill="#CCCCCC"/>
</g>
<defs>
<clipPath id="clip0_10_5">
<rect width="220" height="202" fill="white" transform="translate(0.5)"/>
</clipPath>
</defs>
</svg>
